<?xml version="1.0" standalone="no"?>
<svg xmlns:xlink="http://www.w3.org/1999/xlink" id="wave" style="transform:rotate(180deg); transition: 0.3s" viewBox="0 0 1440 180" version="1.1" xmlns="http://www.w3.org/2000/svg"><defs><linearGradient id="sw-gradient-0" x1="0" x2="0" y1="1" y2="0"><stop stop-color="rgba(255, 75, 75, 1)" offset="0%"/><stop stop-color="rgba(255, 75, 75, 1)" offset="100%"/></linearGradient></defs><path style="transform:translate(0, 0px); opacity:1" fill="url(#sw-gradient-0)" d="M0,90L34.3,90C68.6,90,137,90,206,78C274.3,66,343,42,411,48C480,54,549,90,617,114C685.7,138,754,150,823,138C891.4,126,960,90,1029,75C1097.1,60,1166,66,1234,78C1302.9,90,1371,108,1440,96C1508.6,84,1577,42,1646,24C1714.3,6,1783,12,1851,36C1920,60,1989,102,2057,99C2125.7,96,2194,48,2263,51C2331.4,54,2400,108,2469,132C2537.1,156,2606,150,2674,138C2742.9,126,2811,108,2880,93C2948.6,78,3017,66,3086,78C3154.3,90,3223,126,3291,141C3360,156,3429,150,3497,135C3565.7,120,3634,96,3703,84C3771.4,72,3840,72,3909,75C3977.1,78,4046,84,4114,93C4182.9,102,4251,114,4320,99C4388.6,84,4457,42,4526,39C4594.3,36,4663,72,4731,96C4800,120,4869,132,4903,138L4937.1,144L4937.1,180L4902.9,180C4868.6,180,4800,180,4731,180C4662.9,180,4594,180,4526,180C4457.1,180,4389,180,4320,180C4251.4,180,4183,180,4114,180C4045.7,180,3977,180,3909,180C3840,180,3771,180,3703,180C3634.3,180,3566,180,3497,180C3428.6,180,3360,180,3291,180C3222.9,180,3154,180,3086,180C3017.1,180,2949,180,2880,180C2811.4,180,2743,180,2674,180C2605.7,180,2537,180,2469,180C2400,180,2331,180,2263,180C2194.3,180,2126,180,2057,180C1988.6,180,1920,180,1851,180C1782.9,180,1714,180,1646,180C1577.1,180,1509,180,1440,180C1371.4,180,1303,180,1234,180C1165.7,180,1097,180,1029,180C960,180,891,180,823,180C754.3,180,686,180,617,180C548.6,180,480,180,411,180C342.9,180,274,180,206,180C137.1,180,69,180,34,180L0,180Z"/></svg>